<?xml version="1.0" encoding="UTF-8" standalone="no"?>
<!-- Created with Inkscape (http://www.inkscape.org/) -->

<svg
   width="380.31079"
   height="380.31079"
   viewBox="0 0 98.880806 98.880806"
   version="1.1"
   id="svg1"
   xmlns="http://www.w3.org/2000/svg"
   xmlns:svg="http://www.w3.org/2000/svg">
  <defs
     id="defs1" />
  <g
     id="g85"
     style="display:inline"
     transform="translate(-15.559595,-15.559595)">
    <path
       id="path94"
       style="fill:none;fill-opacity:1;stroke:#2d2d2d;stroke-width:2.6;stroke-linejoin:round;stroke-dasharray:none;stroke-opacity:1;paint-order:markers fill stroke"
       d="m 64.999998,64.897776 v 14.413056 -28.61541 z m 0,0 -14.315089,0.10222 h 28.619667 z m 40.734182,0.102222 A 40.734185,40.734185 0 0 1 64.999998,105.73418 40.734185,40.734185 0 0 1 24.265815,64.999998 40.734185,40.734185 0 0 1 64.999998,24.265815 40.734185,40.734185 0 0 1 105.73418,64.999998 Z m 7.40622,0 A 48.140404,48.140404 0 0 1 64.999998,113.1404 48.140404,48.140404 0 0 1 16.859595,64.999998 48.140404,48.140404 0 0 1 64.999998,16.859595 48.140404,48.140404 0 0 1 113.1404,64.999998 Z" />
  </g>
</svg>
