<?xml version="1.0" encoding="UTF-8" standalone="no"?>
<!-- Created with Inkscape (http://www.inkscape.org/) -->

<svg
   width="380.3562"
   height="425.92462"
   viewBox="0 0 98.892612 110.7404"
   version="1.1"
   id="svg1"
   xmlns="http://www.w3.org/2000/svg"
   xmlns:svg="http://www.w3.org/2000/svg">
  <defs
     id="defs1" />
  <g
     id="g95"
     style="display:inline"
     transform="translate(-15.56356,-3.7)">
    <path
       id="path349"
       style="fill:none;fill-opacity:1;stroke:#2d2d2d;stroke-width:2.6;stroke-linecap:round;stroke-linejoin:round;stroke-dasharray:none;stroke-opacity:1;paint-order:markers fill stroke"
       d="M 65,65 39.999999,90.000001 m 68.765571,-66.710552 -4.60523,5.271799 M 105,20 l -3.94734,4.518684 m 0.18177,-7.808134 -4.60523,5.271798 m 1.52139,1.524292 4.30972,3.764795 m -7.1309,-0.53527 2.82118,-3.229527 -5.387148,-4.705995 4.701978,-5.382546 15.08402,13.176789 -4.70198,5.382546 -5.38715,-4.705999 -2.82118,3.229527 z M 70,4.9999999 V 12 M 65,4.9999999 V 11 M 60,4.9999999 V 12 m 2.1486,0.147055 h 5.722534 m -5.722534,4.288229 2e-6,-4.288231 H 54.995435 V 5 h 20.028864 v 7.147053 h -7.153166 l 10e-7,4.288231 z M 64.78341,63.011763 89.85297,62.29262 65.21659,66.988237 Z M 63,65 65,30 67,65 h -4 m 42.74905,0.03524 A 40.73918,40.704366 0 0 1 65.009866,105.73961 40.73918,40.704366 0 0 1 24.270686,65.035244 40.73918,40.704366 0 0 1 65.009866,24.330878 40.73918,40.704366 0 0 1 105.74905,65.035244 Z m 7.40712,0 A 48.146307,48.105163 0 0 1 65.009866,113.1404 48.146307,48.105163 0 0 1 16.86356,65.035244 48.146307,48.105163 0 0 1 65.009866,16.930079 48.146307,48.105163 0 0 1 113.15617,65.035244 Z" />
  </g>
</svg>
