<?xml version="1.0" encoding="UTF-8" standalone="no"?>
<!-- Created with Inkscape (http://www.inkscape.org/) -->

<svg
   width="380.3562"
   height="425.92462"
   viewBox="0 0 98.892612 110.7404"
   version="1.1"
   id="svg1"
   xmlns="http://www.w3.org/2000/svg"
   xmlns:svg="http://www.w3.org/2000/svg">
  <defs
     id="defs1" />
  <g
     id="g167"
     style="display:inline"
     transform="translate(-15.569501,-3.664757)">
    <path
       id="path338"
       style="fill:none;fill-opacity:1;stroke:#2d2d2d;stroke-width:2.6;stroke-linecap:round;stroke-linejoin:round;stroke-dasharray:none;stroke-opacity:1;paint-order:markers fill stroke"
       d="M 70,4.9999999 V 12 M 65,4.9999999 V 12 M 60,4.9999999 V 12 M 64.78341,63.011763 89.85297,62.29262 65.21659,66.988237 Z M 63,65 65,30 67.000001,65 H 63 M 62.15454,12.111812 h 5.72253 m -5.72253,4.288229 V 12.11181 H 55.00138 V 4.9647571 H 75.03024 V 12.11181 h -7.15317 v 4.288231 z m 43.60045,48.59996 A 40.73918,40.704366 0 0 1 65.01581,105.70437 40.73918,40.704366 0 0 1 24.276626,65.000001 40.73918,40.704366 0 0 1 65.01581,24.295635 40.73918,40.704366 0 0 1 105.75499,65.000001 Z m 7.40712,0 A 48.146307,48.105163 0 0 1 65.01581,113.10516 48.146307,48.105163 0 0 1 16.8695,65.000001 48.146307,48.105163 0 0 1 65.01581,16.894836 a 48.146307,48.105163 0 0 1 48.1463,48.105165 z" />
  </g>
</svg>
