<?xml version="1.0" encoding="UTF-8" standalone="no"?>
<!-- Created with Inkscape (http://www.inkscape.org/) -->

<svg
   width="380.47775"
   height="380.45093"
   viewBox="0 0 98.924216 98.917241"
   version="1.1"
   id="svg1"
   xmlns="http://www.w3.org/2000/svg"
   xmlns:svg="http://www.w3.org/2000/svg">
  <defs
     id="defs1" />
  <g
     id="g127"
     style="display:inline"
     transform="translate(-15.537894,-15.541378)">
    <path
       id="path234"
       style="fill:none;fill-opacity:1;stroke:#2d2d2d;stroke-width:2.6;stroke-linecap:round;stroke-linejoin:round;stroke-dasharray:none;stroke-opacity:1;paint-order:markers fill stroke"
       d="M 50.857864,43.786796 65,57.928932 79.142136,43.786796 86.213204,50.857864 72.071068,65 86.213204,79.142136 79.142136,86.213204 65,72.071068 50.857864,86.213204 43.786796,79.142136 57.928932,65 43.786796,50.857864 50.857864,43.786796 M 113.16211,65.000001 A 48.162108,48.158623 0 0 1 65.000002,113.15862 48.162108,48.158623 0 0 1 16.837894,65.000001 48.162108,48.158623 0 0 1 65.000002,16.841378 48.162108,48.158623 0 0 1 113.16211,65.000001 Z" />
  </g>
</svg>
