<?xml version="1.0" encoding="UTF-8" standalone="no"?>
<!-- Created with Inkscape (http://www.inkscape.org/) -->

<svg
   width="428.07657"
   height="363.30197"
   viewBox="0 0 111.29991 94.458513"
   version="1.1"
   id="svg1"
   xmlns="http://www.w3.org/2000/svg"
   xmlns:svg="http://www.w3.org/2000/svg">
  <defs
     id="defs1" />
  <g
     id="g182"
     style="display:inline"
     transform="translate(-9.3500481,-15.420469)">
    <path
       id="rect369"
       style="fill:none;stroke:#2d2d2d;stroke-width:2.84209;stroke-linecap:round;stroke-linejoin:round;paint-order:markers fill stroke"
       d="m 60.66168,45.66055 c -0.158669,-0.01492 -0.704979,-5.844128 4.338321,-5.92824 5.043299,-0.08411 4.338321,5.92824 4.338321,5.92824 l -2.16916,40.763207 c 0,0 0,2.796307 -2.169161,2.84294 -2.169161,0.04664 -2.169161,-2.84294 -2.169161,-2.84294 z M 10.770986,108.45793 H 119.22902 L 64.999998,16.841378 Z M 69.002619,97.099835 a 4.0026178,4.0658283 0 0 1 -4.002618,4.065835 4.0026178,4.0658283 0 0 1 -4.002618,-4.065835 4.0026178,4.0658283 0 0 1 4.002618,-4.065828 4.0026178,4.0658283 0 0 1 4.002618,4.065828 z" />
  </g>
</svg>
