<?xml version="1.0" encoding="UTF-8" standalone="no"?>
<!-- Created with Inkscape (http://www.inkscape.org/) -->

<svg
   width="394.61539"
   height="423.46173"
   viewBox="0 0 102.6 110.10005"
   version="1.1"
   id="svg1"
   xmlns="http://www.w3.org/2000/svg"
   xmlns:svg="http://www.w3.org/2000/svg">
  <defs
     id="defs1" />
  <g
     id="g137"
     style="display:inline"
     transform="translate(-13.7,-8.6999426)">
    <path
       id="path241-7"
       style="display:inline;fill:none;fill-opacity:1;stroke:#2d2d2d;stroke-width:2.6;stroke-linecap:round;stroke-linejoin:round;stroke-dasharray:none;stroke-opacity:1;paint-order:markers fill stroke"
       d="M 70,10.000058 60,9.9999425 59.999713,34.999941 49.999712,34.999826 64.999484,55 79.999714,35.000171 69.999713,35.000056 Z M 115,60 V 99.999999 M 15,60 v 39.999999 0 M 115,100 v 0 A 50,17.5 0 0 1 65,117.5 50,17.5 0 0 1 15,100 M 74.152941,42.795716 A 50,17.5 0 0 1 115,60 v 0 A 50,17.5 0 0 1 65,77.5 50,17.5 0 0 1 15,60 50,17.5 0 0 1 55.853299,42.795309" />
  </g>
</svg>
