<?xml version="1.0" encoding="UTF-8" standalone="no"?>
<!-- Created with Inkscape (http://www.inkscape.org/) -->

<svg
   width="394.61539"
   height="423.46118"
   viewBox="0 0 102.6 110.09991"
   version="1.1"
   id="svg1"
   xmlns="http://www.w3.org/2000/svg"
   xmlns:svg="http://www.w3.org/2000/svg">
  <defs
     id="defs1" />
  <g
     id="g132"
     style="display:inline"
     transform="translate(-13.7,-8.7000866)">
    <path
       id="path241"
       style="display:inline;fill:none;fill-opacity:1;stroke:#2d2d2d;stroke-width:2.6;stroke-linecap:round;stroke-linejoin:round;stroke-dasharray:none;stroke-opacity:1;paint-order:markers fill stroke"
       d="M 60,55 H 70 V 30.000001 H 80.000001 L 65,10 49.999999,30.000001 H 60 Z m 55,5 V 99.999999 M 15,60 v 39.999999 0 M 115,100 v 0 A 50,17.5 0 0 1 65,117.5 50,17.5 0 0 1 15,100 M 70.001112,42.587759 A 50,17.5 0 0 1 115,60 v 0 A 50,17.5 0 0 1 65,77.5 50,17.5 0 0 1 15,60 50,17.5 0 0 1 59.996185,42.587854" />
  </g>
</svg>
