<?xml version="1.0" encoding="UTF-8" standalone="no"?>
<!-- Created with Inkscape (http://www.inkscape.org/) -->

<svg
   width="317.30679"
   height="348.40564"
   viewBox="0 0 82.499766 90.585466"
   version="1.1"
   id="svg1"
   xmlns="http://www.w3.org/2000/svg"
   xmlns:svg="http://www.w3.org/2000/svg">
  <defs
     id="defs1" />
  <g
     id="g209"
     style="display:inline"
     transform="translate(-22.676348,-19.718472)">
    <path
       id="path10-9"
       style="display:inline;fill:none;stroke:#2d2d2d;stroke-width:2.6;stroke-linejoin:round;stroke-dasharray:none;paint-order:markers fill stroke"
       d="m 73.157301,77.832623 c 1.308555,-0.634754 2.786333,-3.368712 3.985174,-2.642479 7.997768,9.460955 15.995537,18.921908 23.993305,28.382866 -1.308553,0.63475 -2.78633,3.36871 -3.985171,2.64248 C 89.15284,96.754533 81.15507,87.293577 73.157301,77.832623 Z M 72.025704,34.027256 C 86.761289,49.662646 72.199398,78.234794 50.971817,75.337469 29.557299,74.759028 19.762042,44.201515 36.80962,31.156784 46.829069,22.195198 63.570482,23.558849 72.025704,34.027256 Z m -1.849002,45.846733 c 3.024859,-2.585502 6.049717,-5.171004 9.074575,-7.756507 8.208294,9.71 16.416587,19.419998 24.624883,29.129998 -3.02485,2.58551 -6.049712,5.17101 -9.074564,7.75651 C 86.5933,99.293993 78.385,89.583991 70.176702,79.873989 Z m -0.638831,-5.253522 c 1.553325,-1.327707 3.106649,-2.655414 4.659973,-3.983121 0.541212,1.31955 3.67326,2.850281 2.250133,4.009717 -1.332828,1.139237 -2.665654,2.278474 -3.998482,3.417711 -0.970541,-1.148103 -1.941082,-2.296204 -2.911624,-3.444307 z m 5.66039,-43.304959 C 92.389772,49.556794 75.400904,82.890962 50.635395,79.510751 25.651796,78.835903 14.223991,43.18548 34.112834,27.966622 45.787714,17.511609 65.349849,19.105908 75.198261,31.315508 Z" />
  </g>
</svg>
