<?xml version="1.0" encoding="UTF-8" standalone="no"?>
<!-- Created with Inkscape (http://www.inkscape.org/) -->

<svg
   width="394.61539"
   height="413.84634"
   viewBox="0 0 102.6 107.60005"
   version="1.1"
   id="svg1"
   xmlns="http://www.w3.org/2000/svg"
   xmlns:svg="http://www.w3.org/2000/svg">
  <defs
     id="defs1" />
  <g
     id="g147"
     style="display:inline"
     transform="translate(-13.699998,-8.6999416)">
    <path
       id="path241-7-3"
       style="display:inline;fill:none;fill-opacity:1;stroke:#2d2d2d;stroke-width:2.6;stroke-linecap:round;stroke-linejoin:round;stroke-dasharray:none;stroke-opacity:1;paint-order:markers fill stroke"
       d="m 70.000516,10.000058 -10,-1.16e-4 -2.87e-4,24.999999 L 50.000228,34.999826 65,55 80.00023,35.000171 70.000229,35.000056 Z M 85,50 h 30 V 80 H 85 Z M 68.750252,49.999999 80,50 V 80 H 50 v -30 0 h 11.250254 m -46.250256,0 h 30 v 30 h -30 z M 85,85 h 30 v 30 H 85 Z m -35,0 h 30 v 30 H 50 Z m -35,0 h 30 v 30 H 15 Z M 85,15 h 30 V 45 H 85 Z M 70.000001,15 H 80 v 20.000169 m 0,0 V 45 H 72.5 M 57.499493,45 H 50 l 10e-7,-9.999321 m 0,0 v -5.08e-4 m 0,0 L 50,15 v 0 h 9.999999 M 15,15 H 45 V 45 H 15 Z" />
  </g>
</svg>
