<?xml version="1.0" encoding="UTF-8" standalone="no"?>
<!-- Created with Inkscape (http://www.inkscape.org/) -->

<svg
   width="307.54578"
   height="351.52618"
   viewBox="0 0 79.961902 91.396808"
   version="1.1"
   id="svg1"
   xmlns="http://www.w3.org/2000/svg"
   xmlns:svg="http://www.w3.org/2000/svg">
  <defs
     id="defs1" />
  <g
     id="g177"
     style="display:inline"
     transform="translate(-29.19808,-17.45229)">
    <path
       id="rect368"
       style="fill:none;stroke:#2d2d2d;stroke-width:2.66787;stroke-linecap:round;stroke-linejoin:round;paint-order:markers fill stroke"
       d="m 79.042515,20.93467 10.687772,6.486846 -0.787651,1.295187 -10.687772,-6.486846 z M 93.730696,32.724072 95.726264,36.993606 100,35 l 7.82609,4.749978 -8.150831,13.402968 -7.826096,-4.749978 -0.198317,-4.707879 -4.712514,0.198124 6.792364,-11.169141 M 65.696075,31.000415 86.938332,43.893213 93.730695,32.724072 72.488437,19.831275 45.571831,18.786187 c 0,0 12.699309,4.112283 15.892648,6.58756 3.193342,2.475277 4.231596,5.626668 4.231596,5.626668 m -35.16411,70.407675 10.062124,6.10712 40.754177,-67.014838 -10.062125,-6.107116 z" />
  </g>
</svg>
